<svg width="71" height="52" viewBox="0 0 71 52" fill="none" xmlns="http://www.w3.org/2000/svg">
<path id="logo" d="M70.748 19.3155C71.7037 9.28005 69.6393 1.9489 69.5511 1.63731L69.0777 0L67.5338 0.714302C57.7823 5.23233 50.8746 15.359 47.5339 30.0007C45.9106 37.1378 45.496 43.6459 45.4107 47.4026C44.8667 47.4026 44.3256 47.3967 43.7727 47.3967C42.9522 47.3967 42.1494 47.3997 41.3554 47.4114C40.4585 41.8234 38.003 29.8331 32.3539 20.2092C29.2573 14.9445 24.9344 12.2989 20.1587 12.7692C12.5893 13.51 5.28449 21.9464 0.623434 35.3388L0 37.1231L1.88795 37.276C2.34964 37.3112 11.1571 37.9197 20.2234 32.4846C21.8525 34.3276 25.8431 39.1808 30.6777 47.4937C30.7394 47.5996 30.8012 47.7112 30.8629 47.8171C25.1079 48.2345 21.3467 48.9194 21.3467 49.6984C21.3467 50.9712 31.3864 52 43.7757 52C56.1649 52 66.2016 50.9712 66.2016 49.6984C66.2016 49.0076 63.1962 48.3815 58.4411 47.9582C58.5793 47.8024 58.7263 47.6495 58.8557 47.4937C67.2632 37.714 70.0158 27.0759 70.748 19.3185V19.3155ZM34.1183 47.6201C34.0948 47.579 34.0683 47.5319 34.0477 47.4937C28.9485 38.4694 24.6639 33.1283 22.6848 30.8561C23.9287 29.9536 28.6515 26.1734 31.1129 24.007C35.4505 32.464 37.5413 42.3848 38.3971 47.4673C36.9061 47.5055 35.474 47.5584 34.1183 47.6231V47.6201ZM54.921 47.4937C54.8592 47.5613 54.7887 47.6289 54.7299 47.6936C52.7625 47.579 50.6187 47.4937 48.3455 47.4496C48.5837 38.5223 48.2926 20.2386 64.6901 11.1466C65.8752 17.1903 70.8539 30.8032 54.921 47.4937Z" fill="black"/>
</svg>
