<?xml version="1.0" encoding="UTF-8"?><svg id="uuid-17512503-8f1e-4ee7-8837-deff4c80c768" xmlns="http://www.w3.org/2000/svg" viewBox="0 0 2098.92 2200"><defs><style>.uuid-563cbb1a-32be-494a-99e1-c920bfd97b13{fill:#f2755c;}.uuid-21ad0083-54d4-48b3-9311-fa9b53bcd742{fill:#464649;}.uuid-2e350753-b200-4b02-9b65-e00ffd3760ab{fill:#525254;}.uuid-a20773cc-8484-4d77-806e-a555d33e9191{fill:#e5e4e3;}.uuid-02745056-9d40-4c84-a758-a6b7df4ca8c2{fill:#ffbd52;}.uuid-3fbb245d-5ac1-4353-8407-46900e70e7e2{fill:#e86546;}.uuid-75a3e35e-02b1-496c-a6ed-1d2d3bc40978{fill:#f9f9f9;}.uuid-95b68bf9-40e9-4661-9954-e0a61823cf75{fill:#ff9f50;}.uuid-f7dc8784-e48f-4e22-900d-1dcbdbfcfcda{fill:#f77346;}.uuid-d12964d3-0041-44fc-9174-973b1d65997c{fill:#d1543b;}.uuid-e2b04e83-8ad3-47fc-a801-f46a11578f9d{fill:#f2f2f2;}</style></defs><g id="uuid-e0b68401-411f-49ca-ad7c-022fc4e0f6a6"><path class="uuid-3fbb245d-5ac1-4353-8407-46900e70e7e2" d="m590.06,860.41s-285.78,13.11-374.92,65.55S-5.09,1203.87.15,1224.84c5.24,20.97,364.43,55.06,424.73,55.06s222.85-367.05,165.17-419.49Z"/><path class="uuid-d12964d3-0041-44fc-9174-973b1d65997c" d="m424.88,1279.9c60.3,0,222.85-367.05,165.17-419.49,0,0-32.14,1.48-78.21,5.41-43.09,46.82-119.82,140.19-166.89,255.83-29.54,72.6-45.56,119.23-54.23,148.78,61.65,5.74,114.23,9.47,134.15,9.47Z"/><path class="uuid-f7dc8784-e48f-4e22-900d-1dcbdbfcfcda" d="m387.11,1500.01s-158.23-56.15-224.58,183.75c-66.35,239.89-27.32,334.62-88.95,395.72,0,0,313.53,10.06,456.44-99.68,142.91-109.74,119.95-191.4,114.84-245-5.1-53.59-222.03-232.24-257.76-234.79Z"/><path class="uuid-95b68bf9-40e9-4661-9954-e0a61823cf75" d="m304.99,1533.01s-84.81,87.73-102.35,236.87c-17.55,149.14-29.24,225.17-52.64,266.11,0,0,219.32-20.47,324.6-102.35,105.28-81.88,105.28-166.69,105.28-166.69,0,0-195.93-260.27-274.89-233.95Z"/><path class="uuid-02745056-9d40-4c84-a758-a6b7df4ca8c2" d="m366.4,1673.37s-76.03-3.9-87.73,64.34c-11.7,68.23-3.9,146.22-23.39,187.16,0,0,99.43-21.45,159.86-50.69,60.44-29.24,97.48-66.28,68.23-118.92-29.24-52.64-72.13-103.33-116.97-81.88Z"/><path class="uuid-21ad0083-54d4-48b3-9311-fa9b53bcd742" d="m375.18,1325.38s-46.79,67.26-76.03,131.6c-29.24,64.34-.07,174.25,63.36,236.87,77.01,76.03,159.86,123.8,290.48,105.28,101.5-14.39,225.17-210.55,225.17-210.55,0,0-307.05-327.53-502.98-263.19Z"/><path class="uuid-e2b04e83-8ad3-47fc-a801-f46a11578f9d" d="m489.23,1658.75c-191.92-166.89-146.69-382.33-80.9-535.85S997.63-2.27,2094.19,2.12c0,0,58.78,737.95-440.17,1243.6-419.1,424.73-684.43,479.35-827.53,499.79-136.47,19.5-236.39.97-337.27-86.76Z"/><path class="uuid-75a3e35e-02b1-496c-a6ed-1d2d3bc40978" d="m1969.84,43.88s-793.92,65.79-1302.72,802.69C158.31,1583.46,2123.36,26.33,1969.84,43.88Z"/><path class="uuid-a20773cc-8484-4d77-806e-a555d33e9191" d="m2046.31.51c-33.79,339.5-147.06,777.36-471.24,1135.55-382.9,423.06-767.42,545.36-1008.9,576.45,76.8,40.89,158.36,47.56,260.33,33,143.1-20.44,408.43-75.06,827.53-499.79C2152.97,740.07,2097.04.01,2097.04.01c-17.05-.07-33.96.1-50.73.5Z"/><path class="uuid-3fbb245d-5ac1-4353-8407-46900e70e7e2" d="m1206.03,1550.62s-21.4,318.37-81.99,416.53c-60.59,98.16-315.13,238.99-338.39,232.64-23.26-6.35-52.74-407.7-51.31-474.95,1.43-67.25,414.59-239.79,471.69-174.23Z"/><path class="uuid-d12964d3-0041-44fc-9174-973b1d65997c" d="m1455.74,676.69c-61.16,111.34-186.05,181.18-301.1,180.12-126.14-1.16-245.73-77.4-212.14-231.32,40.64-186.18,270.83-321.83,405.51-292.43,138.44,30.22,179.46,213.05,107.73,343.64Z"/><path class="uuid-3fbb245d-5ac1-4353-8407-46900e70e7e2" d="m1435.27,648.91c-61.16,111.34-186.05,181.18-301.1,180.12-126.14-1.16-223-69.45-189.41-223.37,40.64-186.18,254.77-309.52,389.45-280.13,138.44,30.22,172.79,192.79,101.06,323.38Z"/><path class="uuid-21ad0083-54d4-48b3-9311-fa9b53bcd742" d="m1363.3,622.37c-43.91,79.95-133.59,130.1-216.21,129.33-90.58-.84-160.13-49.87-136.01-160.39,29.17-133.69,182.93-222.26,279.64-201.15,99.41,21.7,124.08,138.43,72.58,232.21Z"/><path class="uuid-2e350753-b200-4b02-9b65-e00ffd3760ab" d="m1051.44,574.28c22.2-101.66,139.14-169.02,212.68-152.97,75.59,16.5-231.04,237.02-212.68,152.97Z"/><path class="uuid-3fbb245d-5ac1-4353-8407-46900e70e7e2" d="m705.51,1190.25s-184.32-17.04-292.31,56.18c-107.99,73.21-328.83,355.5-313.63,373.58,5.12,6.09,30.95,31.68,45.33,32.17,100.62,3.41,300.76-41.54,357.99-68.48,84.46-39.76,231.59-211.77,268.11-266.18,36.53-54.41-24.42-123.73-65.48-127.27Z"/><path class="uuid-3fbb245d-5ac1-4353-8407-46900e70e7e2" d="m1541.57,88.22c16.01,78.15,58.98,177.29,144.68,259.46,116.58,111.78,249.54,165.71,352.12,193.46C2115.22,240.6,2097.04.01,2097.04.01c-204.81-.82-389.73,32.49-555.47,88.2Z"/><path class="uuid-d12964d3-0041-44fc-9174-973b1d65997c" d="m2046.31.53c-15.37,154.39-47.17,329.12-107.78,507.46,35.18,14,68.9,24.78,99.84,33.15C2115.22,240.6,2097.04.01,2097.04.01c-17.05-.07-33.95.12-50.73.52Z"/><path class="uuid-563cbb1a-32be-494a-99e1-c920bfd97b13" d="m1969.84,43.88s-174,14.42-411.28,105.37c21.44,61.07,58.38,127.96,116.39,187.22,203.1-167.8,339.84-297.72,294.88-292.58Z"/><path class="uuid-563cbb1a-32be-494a-99e1-c920bfd97b13" d="m432.2,1347.31c91.49-70.37,275.08-73,349.99-66.58-.25-44.67-44.55-87.72-76.68-90.48,0,0-184.32-17.04-292.31,56.18-107.99,73.21-328.83,355.5-313.63,373.58,5.12,6.09,30.95,31.68,45.33,32.17,0,0,192.27-231.75,287.32-304.86Z"/><path class="uuid-563cbb1a-32be-494a-99e1-c920bfd97b13" d="m103.58,1143.48c-12.86,10.75-51.17,25.42-41.85,11.49,53.83-80.39,126.5-196.46,202.66-222.21,69.63-23.54,105.92-29.92,155.62-35.31,9.1-.99,15.34,8.36,6.82,11.7-63.36,24.79-121.48,42.53-176.87,92.38-47.38,42.64-93.01,97.35-146.39,141.96Z"/><path class="uuid-563cbb1a-32be-494a-99e1-c920bfd97b13" d="m1091.64,1575.41s-14.62,255.88-43.86,310.47c-29.24,54.59-228.1,187.16-253.44,202.75-25.34,15.6-52.64-327.53-38.99-358.72,13.65-31.19,195.93-136.96,336.3-154.5Z"/><path class="uuid-2e350753-b200-4b02-9b65-e00ffd3760ab" d="m413.19,1641.21s46.18,59.21,130.13,95.77c90.65,39.48,119.9,32.9,119.9,32.9,0,0-42.4,30.71-141.83-2.92-99.43-33.63-160.84-119.9-160.84-119.9,0,0,35.09-10.24,52.64-5.85Z"/><path class="uuid-563cbb1a-32be-494a-99e1-c920bfd97b13" d="m1021.45,743.44s88.95,84.56,256.61-5.12c167.66-89.68,145-256.12,121.6-306.81,0,0,133.75,194.58-113.07,337.27-187.16,108.2-265.14-25.34-265.14-25.34Z"/><path class="uuid-d12964d3-0041-44fc-9174-973b1d65997c" d="m913.63,1005.84c-31.59,64.51-100.28,107.27-165.29,109.72-71.28,2.69-140.85-37.2-125.95-125.03,18.02-106.24,144.44-188.96,221.29-175.93,78.99,13.4,107.01,115.57,69.96,191.24Z"/><path class="uuid-3fbb245d-5ac1-4353-8407-46900e70e7e2" d="m901.33,990.69c-31.59,64.51-100.28,107.27-165.29,109.72-71.28,2.69-127.8-33.31-112.9-121.14,18.02-106.24,135.69-181.58,212.54-168.55,78.99,13.4,102.71,104.31,65.66,179.97Z"/><path class="uuid-21ad0083-54d4-48b3-9311-fa9b53bcd742" d="m859.98,977.6c-22.68,46.32-72.01,77.02-118.69,78.78-51.18,1.93-91.77-23.92-81.08-86.99,12.93-76.28,97.43-130.39,152.61-121.03,56.72,9.62,73.75,74.9,47.15,129.23Z"/><path class="uuid-2e350753-b200-4b02-9b65-e00ffd3760ab" d="m682.56,958.71c9.84-58.01,74.11-99.16,116.07-92.04,43.13,7.31-124.21,140-116.07,92.04Z"/><path class="uuid-563cbb1a-32be-494a-99e1-c920bfd97b13" d="m670.11,1055.05s52.48,45.4,144.8-9.7,75.11-148.51,60.55-176.52c0,0,80.7,106.36-54.92,193.5-102.84,66.08-150.43-7.28-150.43-7.28Z"/><path class="uuid-d12964d3-0041-44fc-9174-973b1d65997c" d="m190.86,1651.04c106.45-7.36,262.57-44.07,312.01-67.35,84.46-39.76,231.59-211.77,268.11-266.18,2.39-3.56,4.34-7.18,5.93-10.84-126.34.07-246.27,13.84-318.88,66.48-60.65,43.97-205.69,207.41-267.17,277.9Z"/><path class="uuid-d12964d3-0041-44fc-9174-973b1d65997c" d="m1115.66,1539.57c-2.67,69.37-12.36,268.96-37.18,335.59-27.78,74.57-166.09,176.68-222.25,207.63-25.02,13.79-57.89,27.57-90.07,39.68,6.46,45.02,13.2,75.62,19.49,77.33,23.26,6.35,277.8-134.48,338.39-232.64,60.59-98.16,81.99-416.53,81.99-416.53-13.53-15.54-47.07-17.69-90.37-11.05Z"/></g></svg>