<svg width="40" height="28" viewBox="0 0 40 28" fill="none" xmlns="http://www.w3.org/2000/svg">
<path d="M39.858 10.4007C40.3965 4.99695 39.2334 1.04941 39.1837 0.881628L38.917 0L38.0472 0.384624C32.5534 2.81741 28.6617 8.27021 26.7797 16.1542C25.8651 19.9973 25.6315 23.5016 25.5835 25.5245C25.277 25.5245 24.9722 25.5213 24.6607 25.5213C24.1985 25.5213 23.7462 25.5229 23.2988 25.5292C22.7935 22.5203 21.4101 16.064 18.2275 10.8819C16.483 8.04703 14.0476 6.6225 11.357 6.87575C7.09254 7.27462 2.97717 11.8173 0.35123 19.0286L0 19.9894L1.06363 20.0717C1.32374 20.0907 6.2857 20.4183 11.3934 17.4917C12.3113 18.4841 14.5595 21.0973 17.2832 25.5735C17.318 25.6305 17.3528 25.6907 17.3876 25.7477C14.1453 25.9724 12.0263 26.3412 12.0263 26.7607C12.0263 27.446 17.6825 28 24.6623 28C31.6422 28 37.2967 27.446 37.2967 26.7607C37.2967 26.3887 35.6035 26.0516 32.9245 25.8236C33.0024 25.7397 33.0852 25.6574 33.1581 25.5735C37.8948 20.3075 39.4455 14.5793 39.858 10.4023V10.4007ZM19.2216 25.6416C19.2083 25.6194 19.1934 25.5941 19.1818 25.5735C16.309 20.7143 13.8951 17.8383 12.7801 16.6148C13.481 16.1289 16.1417 14.0934 17.5284 12.9269C19.9721 17.4806 21.15 22.8226 21.6321 25.5593C20.7922 25.5799 19.9853 25.6084 19.2216 25.6432V25.6416ZM30.9414 25.5735C30.9066 25.61 30.8669 25.6464 30.8337 25.6812C29.7254 25.6194 28.5176 25.5735 27.2369 25.5498C27.3711 20.7428 27.2071 10.8977 36.4451 6.00204C37.1128 9.2563 39.9177 16.5863 30.9414 25.5735Z" fill="white"/>
</svg>
