<?xml version="1.0" encoding="UTF-8"?><svg id="uuid-5f6dd4e4-77fb-4383-bb12-38f2c00fb337" xmlns="http://www.w3.org/2000/svg" viewBox="0 0 255 133.07"><defs><style>.uuid-f780a34b-d8fe-4471-8cc4-228de62b2767{fill:#fff;}</style></defs><g id="uuid-ba4fad5f-d08e-4ea2-ae7a-be3c54df5761"><path class="uuid-f780a34b-d8fe-4471-8cc4-228de62b2767" d="m0,99.5h27.57v4.75h-11.16v28.27h-5.3v-28.27H0v-4.75Zm64.45,13.16h-16.61v-13.16h-5.3v33.03h5.3v-15.11h16.61v15.11h5.3v-33.03h-5.3v13.16Zm23.67,19.87h5.3v-33.03h-5.3v33.03Zm45.53-10.76l-20.07-22.82h-1.85v33.58h5.3v-22.32l20.12,22.87h1.8v-33.58h-5.3v22.27Zm39.29-22.82l-14.56,33.58h5.65l9.81-23.76,9.75,23.76h5.71l-14.56-33.58h-1.8Zm31.62,33.58h5.3v-33.03h-5.3v33.03Zm50.44,0h-6.06l-9.41-12.76h-6.06v12.76h-5.3v-33.03h12.06c3.34,0,6.04.93,8.11,2.8,2.07,1.87,3.1,4.3,3.1,7.31,0,2.17-.56,4.07-1.68,5.7-1.12,1.63-2.68,2.84-4.68,3.6l9.91,13.61Zm-10.56-18.96c1.03-1,1.55-2.3,1.55-3.9s-.52-2.95-1.55-3.95c-1.03-1-2.47-1.5-4.3-1.5h-6.66v10.86h6.66c1.83,0,3.27-.5,4.3-1.5Zm-91.06-39.46c-.21.24-.43.48-.65.72,7.41.66,12.1,1.63,12.1,2.72,0,1.98-15.66,3.59-34.98,3.59s-34.98-1.61-34.98-3.59c0-1.21,5.87-2.28,14.85-2.94-.1-.17-.19-.34-.29-.5-7.54-12.97-13.76-20.54-16.31-23.42-14.14,8.48-27.87,7.53-28.59,7.47l-2.94-.23.97-2.78c7.27-20.9,18.66-34.05,30.47-35.21,7.44-.73,14.19,3.39,19.01,11.61,8.81,15.02,12.64,33.72,14.04,42.44,1.24-.01,2.49-.02,3.77-.02.86,0,1.71,0,2.56.01.13-5.87.78-16.02,3.31-27.15,5.21-22.84,15.98-38.64,31.19-45.69l2.41-1.12.74,2.56c.14.48,3.36,11.92,1.87,27.58-1.14,12.1-5.44,28.7-18.55,43.96Zm-31.91-.05c-1.33-7.93-4.59-23.4-11.36-36.6-3.84,3.38-11.21,9.28-13.14,10.68,3.09,3.55,9.77,11.88,17.72,25.96.03.06.08.13.11.2,2.12-.1,4.35-.19,6.67-.25Zm41.01-56.66c-25.57,14.18-25.11,42.7-25.49,56.63,3.54.08,6.88.21,9.95.39.1-.1.21-.21.3-.31,24.85-26.04,17.08-47.28,15.23-56.71Z"/></g></svg>