<?xml version="1.0" standalone="no"?>
<!DOCTYPE svg PUBLIC "-//W3C//DTD SVG 20010904//EN"
 "http://www.w3.org/TR/2001/REC-SVG-20010904/DTD/svg10.dtd">
<svg version="1.0" xmlns="http://www.w3.org/2000/svg"
 width="1032.000000pt" height="1032.000000pt" viewBox="0 0 1032.000000 1032.000000"
 preserveAspectRatio="xMidYMid meet">
<metadata>
Created by potrace 1.14, written by Peter Selinger 2001-2017
</metadata>
<g transform="translate(0.000000,1032.000000) scale(0.100000,-0.100000)"
fill="#000000" stroke="none">
<path d="M9980 8912 c-30 -14 -80 -37 -110 -52 -30 -15 -58 -28 -63 -28 -7 -2
-56 -26 -227 -114 -36 -18 -67 -36 -70 -39 -3 -4 -21 -15 -40 -25 -48 -26
-274 -172 -305 -196 -5 -5 -41 -32 -80 -60 -38 -28 -72 -54 -75 -57 -3 -4 -21
-18 -40 -32 -19 -15 -46 -37 -60 -49 -14 -12 -45 -38 -70 -58 -58 -48 -393
-383 -445 -447 -22 -26 -45 -53 -50 -59 -6 -6 -38 -45 -70 -86 -33 -41 -63
-76 -67 -78 -5 -2 -8 -10 -8 -18 0 -8 -4 -14 -8 -14 -24 0 -405 -575 -453
-685 -5 -11 -19 -36 -30 -55 -37 -61 -59 -104 -59 -117 0 -6 -4 -13 -8 -15
-11 -4 -212 -419 -212 -437 0 -4 -10 -29 -23 -57 -23 -47 -123 -297 -142 -354
-1 -3 -7 -18 -14 -35 -13 -31 -142 -412 -145 -430 -4 -16 -27 -95 -48 -160
-11 -33 -22 -71 -24 -85 -3 -14 -9 -39 -15 -56 -5 -17 -12 -40 -14 -50 -2 -10
-14 -55 -26 -99 -11 -44 -23 -88 -25 -97 -2 -10 -6 -26 -8 -35 -3 -10 -16 -70
-30 -133 -15 -63 -31 -133 -36 -155 -5 -22 -12 -51 -14 -65 -2 -14 -9 -45 -14
-70 -5 -25 -10 -52 -11 -60 0 -8 -7 -44 -15 -80 -9 -36 -18 -81 -21 -100 -3
-19 -12 -75 -21 -125 -8 -49 -17 -101 -19 -115 -2 -14 -9 -56 -16 -95 -6 -38
-12 -83 -14 -100 -2 -16 -7 -48 -10 -70 -3 -22 -7 -53 -9 -70 -2 -16 -6 -48
-9 -70 -9 -57 -26 -200 -32 -270 -3 -33 -8 -76 -10 -95 -2 -19 -7 -64 -10
-100 -3 -36 -8 -87 -11 -114 -6 -62 -14 -162 -19 -256 -2 -41 -7 -123 -10
-181 -3 -58 -8 -157 -10 -220 -2 -63 -4 -121 -4 -129 -1 -13 -40 -15 -292 -13
-160 0 -292 3 -294 5 -4 4 -13 47 -20 97 -5 35 -11 68 -19 107 -2 12 -7 37
-10 55 -18 107 -36 199 -47 242 -6 22 -8 41 -5 44 3 3 1 14 -5 25 -6 11 -12
34 -14 51 -2 18 -7 43 -10 57 -3 14 -8 39 -11 55 -3 17 -10 48 -16 70 -7 22
-11 43 -10 47 1 4 -2 18 -7 31 -5 13 -12 41 -15 63 -4 21 -12 57 -18 79 -6 22
-12 49 -14 60 -2 18 -65 263 -99 390 -49 179 -87 313 -95 335 -5 14 -19 59
-31 100 -30 101 -151 468 -184 555 -15 39 -31 86 -37 105 -5 19 -14 40 -18 45
-5 6 -8 12 -8 15 -1 13 -75 204 -84 215 -4 5 -8 15 -8 22 0 12 -13 43 -61 149
-11 22 -19 43 -19 46 0 4 -16 41 -36 85 -20 43 -43 94 -51 113 -53 120 -274
551 -312 610 -9 14 -23 39 -31 55 -8 17 -19 35 -23 40 -4 6 -40 60 -78 120
-39 61 -75 112 -80 113 -5 2 -9 8 -9 13 0 31 -250 307 -374 414 -69 59 -216
166 -266 193 -19 10 -55 30 -80 43 -25 14 -70 35 -100 48 -30 13 -68 29 -85
36 -24 10 -90 31 -127 41 -5 1 -9 2 -10 4 -2 1 -10 3 -18 5 -8 1 -40 7 -70 14
-133 26 -189 32 -315 31 -60 0 -123 -2 -140 -4 -16 -2 -57 -7 -90 -11 -125
-14 -415 -100 -483 -143 -12 -8 -22 -11 -22 -7 0 4 -6 3 -13 -3 -18 -15 -127
-72 -127 -66 0 3 -6 0 -12 -6 -7 -6 -58 -38 -113 -72 -55 -34 -104 -66 -110
-70 -5 -5 -28 -22 -50 -38 -44 -33 -41 -30 -105 -80 -120 -93 -331 -298 -454
-439 -22 -27 -177 -219 -214 -266 -47 -61 -131 -180 -187 -265 -38 -58 -71
-107 -74 -110 -3 -3 -17 -26 -31 -52 -13 -27 -28 -48 -31 -48 -4 0 -9 -8 -12
-17 -4 -10 -18 -38 -33 -63 -15 -25 -38 -65 -52 -89 -14 -25 -37 -65 -52 -90
-40 -70 -252 -498 -279 -566 -14 -33 -29 -63 -34 -66 -5 -3 -8 -9 -7 -13 1 -4
-8 -30 -21 -59 -13 -29 -24 -54 -24 -57 -1 -3 -7 -18 -13 -33 -7 -16 -12 -30
-12 -32 0 -3 -14 -34 -30 -70 -17 -36 -30 -70 -30 -75 0 -5 -6 -24 -14 -42
-12 -28 -24 -57 -31 -78 -1 -3 -7 -18 -14 -35 -7 -16 -22 -56 -32 -87 -11 -32
-24 -70 -31 -85 -6 -16 -12 -32 -14 -38 -1 -5 -22 -67 -47 -138 -25 -70 -42
-129 -37 -132 16 -10 310 -27 470 -27 109 0 292 9 370 18 25 2 64 6 87 8 23 2
61 7 85 11 44 7 63 10 133 20 23 3 52 8 65 10 14 3 41 8 60 10 19 3 54 9 78
15 23 5 59 13 80 16 20 3 40 8 45 11 4 2 20 7 35 9 15 3 45 10 67 16 22 6 47
12 55 13 64 8 445 135 620 205 182 74 533 243 560 270 3 3 32 19 65 37 l60 31
35 -46 c19 -25 40 -50 46 -56 24 -25 166 -199 257 -316 54 -69 103 -132 110
-140 7 -8 19 -26 28 -40 9 -14 25 -35 35 -47 11 -13 42 -54 69 -93 28 -39 67
-93 88 -120 20 -27 37 -53 37 -57 1 -4 14 -24 30 -43 17 -19 30 -40 30 -46 0
-7 4 -14 9 -16 5 -1 55 -73 112 -158 57 -85 107 -156 111 -158 5 -2 8 -8 8
-12 0 -5 26 -49 57 -97 32 -48 65 -99 73 -113 15 -26 63 -102 133 -211 20 -32
37 -63 37 -69 0 -5 5 -10 10 -10 6 0 10 -5 10 -11 0 -6 17 -37 38 -68 20 -31
46 -74 57 -96 11 -22 22 -42 25 -45 16 -15 91 -152 86 -158 -4 -3 -19 -7 -34
-7 -88 -6 -223 -17 -257 -20 -22 -2 -65 -7 -95 -10 -49 -5 -91 -10 -170 -20
-14 -2 -52 -6 -84 -9 -92 -10 -170 -22 -286 -42 -19 -4 -44 -8 -55 -10 -80
-13 -254 -60 -306 -82 -83 -36 -106 -83 -60 -119 61 -48 253 -102 494 -139 15
-2 39 -6 55 -8 96 -15 339 -44 427 -51 33 -3 78 -7 100 -10 89 -11 443 -36
725 -51 416 -22 695 -27 1415 -28 824 0 1152 8 1790 48 146 9 443 34 510 42
17 2 57 6 90 10 33 3 71 8 85 10 14 1 45 5 69 8 89 11 127 16 151 20 14 3 43
7 65 10 22 4 51 8 65 11 14 2 36 7 50 9 14 3 35 7 46 10 12 2 37 7 55 10 116
19 262 78 289 116 20 27 20 28 0 52 -16 21 -98 66 -135 74 -5 1 -55 14 -110
27 -55 14 -116 28 -135 32 -99 17 -158 26 -190 30 -19 3 -46 7 -60 10 -28 5
-96 14 -155 20 -22 2 -62 7 -90 10 -27 3 -66 7 -86 9 -20 2 -41 6 -47 10 -6 3
-13 2 -17 -4 -4 -6 -13 -7 -23 -1 -9 4 -27 7 -39 6 -13 -1 -23 0 -23 2 0 4
100 125 109 133 13 10 239 298 281 359 14 20 35 47 48 61 12 14 22 28 22 32 0
3 6 13 13 20 6 7 30 40 52 73 22 33 42 62 45 65 11 10 166 255 177 280 4 8 9
17 13 20 8 7 74 121 164 282 45 80 170 329 210 418 21 47 47 103 57 125 10 22
30 69 45 105 14 36 31 76 37 90 6 14 11 27 12 30 5 14 19 48 30 75 32 73 181
513 191 560 1 6 15 57 32 115 17 58 34 119 37 135 8 42 13 60 16 60 1 0 3 9 5
20 4 26 9 45 17 70 3 11 8 31 11 45 2 14 14 69 25 124 29 138 30 141 47 236 8
47 17 96 20 110 4 24 7 43 20 128 12 84 15 109 19 142 2 19 7 60 11 90 4 30 8
66 9 80 2 14 4 25 4 25 1 0 4 32 7 70 2 39 6 90 9 115 20 220 27 891 12 1120
-13 195 -16 225 -21 275 -3 28 -8 75 -11 105 -3 30 -13 109 -21 175 -27 206
-27 209 -50 335 -4 19 -8 44 -10 55 -2 11 -8 43 -14 70 -6 28 -12 59 -14 70
-2 11 -9 43 -15 70 -6 28 -14 61 -17 75 -3 14 -19 72 -36 130 -34 117 -33 113
-43 158 -4 18 -10 34 -14 36 -3 2 -31 -8 -61 -22z m-569 -1619 c1 -29 12 -83
46 -223 3 -14 7 -30 9 -37 1 -6 7 -35 14 -65 31 -139 41 -186 46 -218 3 -19 8
-44 11 -55 4 -11 7 -27 9 -35 1 -8 11 -69 22 -135 24 -140 33 -197 37 -245 2
-19 7 -55 10 -80 19 -146 27 -293 28 -505 0 -180 -9 -412 -18 -445 -2 -8 -6
-44 -10 -80 -3 -36 -7 -74 -9 -85 -2 -11 -7 -40 -10 -65 -3 -25 -8 -54 -10
-65 -2 -11 -11 -58 -20 -105 -20 -105 -22 -114 -35 -170 -7 -25 -13 -52 -15
-60 -2 -8 -11 -42 -20 -75 -10 -33 -19 -67 -21 -75 -2 -8 -4 -16 -4 -17 -1 -2
-1 -5 -2 -8 -5 -30 -129 -378 -139 -390 -7 -8 -10 -15 -7 -15 11 0 -158 -375
-183 -405 -7 -8 -10 -15 -7 -15 3 0 -12 -32 -34 -71 -21 -40 -39 -75 -39 -80
0 -4 -3 -9 -7 -11 -5 -1 -17 -21 -28 -43 -31 -61 -109 -190 -117 -193 -5 -2
-8 -8 -8 -13 0 -6 -18 -37 -40 -69 -22 -32 -40 -63 -40 -69 0 -5 -4 -11 -8
-13 -4 -1 -36 -46 -71 -98 -36 -52 -67 -97 -71 -100 -3 -3 -16 -22 -29 -42
-12 -21 -26 -38 -31 -38 -5 0 -11 -8 -14 -17 -4 -10 -19 -32 -34 -50 -15 -18
-45 -57 -67 -87 -22 -30 -43 -55 -47 -56 -5 0 -8 -4 -8 -10 0 -5 -10 -20 -22
-33 -13 -14 -32 -36 -43 -49 -42 -53 -91 -110 -122 -144 -18 -19 -33 -36 -33
-39 0 -2 -12 -17 -27 -33 -16 -16 -68 -73 -118 -127 -125 -137 -118 -130 -146
-127 -4 1 -62 4 -130 7 -68 3 -173 7 -234 11 -60 3 -182 7 -270 10 -88 3 -185
6 -214 7 l-55 2 3 105 c4 126 11 341 12 355 0 6 0 19 -1 30 -2 35 11 316 25
528 9 145 29 354 45 482 6 44 13 98 16 120 2 22 7 51 9 65 2 14 7 48 10 75 3
28 17 108 30 180 13 71 22 131 20 133 -2 3 0 13 5 23 6 9 12 35 16 56 3 21 7
46 10 55 3 10 7 29 10 44 5 29 75 293 99 374 9 30 18 62 20 70 11 45 68 211
110 320 54 141 69 178 144 343 17 37 30 70 30 73 0 4 3 10 8 13 5 3 24 35 41
71 18 36 52 101 77 145 25 44 53 95 62 113 9 17 20 32 25 32 4 0 8 4 8 9 0 8
56 100 77 126 5 6 17 24 27 40 22 34 157 217 166 225 3 3 21 25 40 50 19 24
42 52 50 61 8 9 47 51 85 94 118 131 268 277 390 377 21 18 47 41 57 51 10 9
21 17 24 17 4 0 14 8 23 18 9 9 24 22 32 27 9 6 50 35 90 66 41 30 124 87 184
127 61 39 115 75 120 79 6 5 26 17 45 27 19 11 51 30 70 42 43 28 70 30 71 7z
m-4751 -2128 c0 -3 18 -41 39 -85 22 -44 40 -83 40 -85 0 -3 7 -21 16 -40 8
-19 22 -50 30 -69 26 -60 147 -369 176 -451 15 -44 43 -124 63 -177 19 -54 32
-98 29 -98 -3 0 -1 -6 5 -12 13 -17 133 -399 147 -471 2 -9 7 -22 11 -29 4 -6
9 -21 10 -32 2 -12 24 -93 49 -181 24 -88 47 -171 50 -185 2 -14 18 -79 35
-145 17 -66 32 -129 35 -140 2 -11 13 -63 25 -115 12 -52 24 -106 26 -119 3
-14 7 -28 10 -33 3 -5 7 -23 10 -41 6 -49 11 -75 29 -157 9 -41 18 -84 20 -95
5 -33 15 -86 30 -165 9 -41 17 -89 19 -105 2 -17 7 -42 11 -56 4 -16 2 -30 -4
-34 -6 -3 -73 -8 -149 -11 -164 -5 -360 -13 -421 -17 -42 -2 -44 -1 -67 43
-14 25 -35 63 -47 85 -13 22 -32 56 -42 75 -11 19 -22 37 -25 40 -5 5 -17 25
-57 99 -14 25 -32 53 -39 62 -8 8 -14 18 -14 22 0 6 -61 108 -70 117 -3 3 -16
26 -30 53 -13 26 -28 47 -32 47 -5 0 -8 5 -8 11 0 31 -604 943 -667 1007 -7 7
-13 20 -13 28 0 8 -4 14 -9 14 -5 0 -24 23 -42 50 -18 28 -36 50 -40 50 -4 0
-11 9 -14 20 -3 11 -12 26 -19 32 -6 7 -32 40 -56 73 -25 33 -52 69 -61 80
-10 11 -49 61 -88 110 -96 121 -90 113 -146 180 -27 33 -57 68 -65 78 -8 10
-23 28 -33 40 -17 20 -17 21 10 44 15 13 43 32 61 44 17 11 32 25 32 30 0 5 5
9 11 9 6 0 16 6 24 13 18 17 43 37 90 72 22 17 49 37 60 47 11 9 52 41 90 72
90 72 123 99 138 111 7 6 34 28 62 50 65 52 93 76 121 100 12 11 34 29 49 39
14 11 38 30 53 44 15 13 42 35 61 50 19 15 44 36 56 47 12 11 39 34 61 52 21
17 49 39 60 50 79 68 139 120 153 129 13 10 25 -8 83 -128 38 -77 68 -141 68
-143z"/>
</g>
</svg>
